Coordinates
version=1
nRows=14
nColumns=40
inDegrees=yes

Units are S.I. units (second, meters, Newtons, ...)
Angles are in degrees.

endheader
time	pelvis_tilt	pelvis_list	pelvis_rotation	pelvis_tx	pelvis_ty	pelvis_tz	hip_flexion_r	hip_adduction_r	hip_rotation_r	knee_angle_r	knee_angle_r_beta	ankle_angle_r	subtalar_angle_r	mtp_angle_r	hip_flexion_l	hip_adduction_l	hip_rotation_l	knee_angle_l	knee_angle_l_beta	ankle_angle_l	subtalar_angle_l	mtp_angle_l	lumbar_extension	lumbar_bending	lumbar_rotation	arm_flex_r	arm_add_r	arm_rot_r	elbow_flex_r	pro_sup_r	wrist_flex_r	wrist_dev_r	arm_flex_l	arm_add_l	arm_rot_l	elbow_flex_l	pro_sup_l	wrist_flex_l	wrist_dev_l
      6.51750000	     -6.83789801	     -5.82330842	      1.38009163	      1.02513250	      0.92984816	      0.51040319	     11.06925273	      4.40949309	    -19.19045474	     11.07406823	     11.07406823	      9.14851627	      6.58939400	     -4.77797373	     43.25388592	    -13.24578687	      3.89866351	     59.94664345	     59.94664345	      9.27865651	    -17.99082501	     12.07532370	    -12.81439823	      6.54132339	      5.69553116	     26.18878081	    -16.06371382	      4.12149980	     51.81369368	     45.38566557	      0.00000000	      0.00000000	     -2.64565224	     -6.86632440	     -2.72110696	     29.60501049	     46.98635401	      0.00000000	      0.00000000
      6.52871429	     -6.84358542	     -5.85645630	      1.48589782	      1.02351452	      0.92950523	      0.51046264	     10.53190030	      4.50761260	    -19.15102066	     10.87691346	     10.87691346	      9.48544649	      6.59061848	     -4.85569345	     43.63272694	    -12.99629476	      4.08278986	     57.18068971	     57.18068971	      9.07399178	    -17.80190334	     12.35649608	    -12.87436197	      6.47045537	      5.52612738	     28.37189410	    -15.95710613	      3.91313597	     53.65600125	     45.34094064	      0.00000000	      0.00000000	     -4.01419834	     -6.92067528	     -2.82069572	     28.57440943	     46.96936979	      0.00000000	      0.00000000
      6.53992857	     -6.89150210	     -5.90626597	      1.58748657	      1.02193905	      0.92907676	      0.51039768	     10.02521478	      4.61939331	    -19.12042577	     10.65318517	     10.65318517	      9.81069662	      6.62660424	     -4.93638892	     43.90500874	    -12.76627342	      4.22086253	     54.16268746	     54.16268746	      8.90106798	    -17.47592523	     12.58979594	    -12.88194439	      6.43450787	      5.45538161	     30.41463991	    -15.94443526	      3.77959498	     55.62992291	     45.28780748	      0.00000000	      0.00000000	     -5.25579465	     -6.95411097	     -2.90594480	     27.59647795	     46.95564790	      0.00000000	      0.00000000
      6.55114286	     -6.92795390	     -6.00046308	      1.73961353	      1.02054037	      0.92859246	      0.51013811	      9.44801355	      4.77907387	    -19.14305381	     10.33659108	     10.33659108	     10.12637088	      6.69116765	     -4.99669318	     44.00088833	    -12.52464289	      4.40075508	     50.88646734	     50.88646734	      8.73183903	    -17.09083219	     12.63436783	    -12.90161562	      6.47535491	      5.19031442	     32.23550902	    -15.84297318	      3.77177866	     58.38977522	     45.20180818	      0.00000000	      0.00000000	     -6.49596683	     -6.98026651	     -3.03626236	     26.49677456	     46.94845757	      0.00000000	      0.00000000
      6.56235714	     -7.01572922	     -6.15739629	      1.87373443	      1.01923813	      0.92794894	      0.50979596	      8.90515180	      4.99957382	    -19.21600918	      9.99096875	      9.99096875	     10.41077162	      6.85349899	     -5.07167731	     43.98154389	    -12.38503517	      4.49944620	     47.35466725	     47.35466725	      8.11266766	    -16.60593704	     11.42935148	    -12.91443844	      6.57640644	      5.97046871	     32.68402826	    -17.20835819	      3.95919437	     64.02817344	     45.01578075	      0.00000000	      0.00000000	     -6.98409990	     -6.87747353	     -3.64680491	     25.21565346	     47.00838276	      0.00000000	      0.00000000
      6.57357143	     -7.05830032	     -6.20884195	      2.01452363	      1.01810505	      0.92744255	      0.50928703	      8.29722532	      5.10832240	    -19.18793108	      9.64747780	      9.64747780	     10.71605089	      6.88895501	     -5.13053189	     43.75224793	    -12.13531559	      4.48697624	     43.73872903	     43.73872903	      8.06464595	    -15.84970652	     11.75754955	    -12.85088852	      6.56809788	      5.75703673	     34.60054578	    -16.94151035	      3.64242653	     65.98370704	     44.97357430	      0.00000000	      0.00000000	     -8.17189303	     -6.95260201	     -3.69652546	     24.53279391	     46.98764701	      0.00000000	      0.00000000
      6.58478571	     -7.12766745	     -6.42174610	      2.21874827	      1.01716702	      0.92667245	      0.50860263	      7.61403506	      5.40884714	    -19.30685901	      9.10367235	      9.10367235	     10.98995470	      7.06064167	     -5.17919795	     43.50870924	    -11.99004642	      4.55335405	     40.15347770	     40.15347770	      7.97857583	    -14.95878305	     11.78516331	    -12.76571722	      6.77847892	      5.52734658	     36.13504190	    -16.83232527	      3.34304700	     69.34003024	     44.88668652	      0.00000000	      0.00000000	     -9.33920103	     -6.94398124	     -3.81438945	     24.08807460	     46.97026290	      0.00000000	      0.00000000
      6.59600000	     -7.20614513	     -6.54642215	      2.37964278	      1.01647648	      0.92595659	      0.50779265	      6.91451134	      5.60616992	    -19.33285165	      8.55112292	      8.55112292	     11.18093764	      7.31060602	     -5.25379599	     43.05974064	    -11.81318199	      4.38261181	     36.48208015	     36.48208015	      7.83229461	    -13.87900602	     11.72877149	    -12.69690173	      6.88376895	      5.86536437	     36.98782561	    -17.31904294	      2.86220411	     73.67900814	     44.78224548	      0.00000000	      0.00000000	    -10.32097903	     -7.03047313	     -3.96434416	     24.05896610	     46.94592883	      0.00000000	      0.00000000
      6.60721429	     -7.18364121	     -6.64936387	      2.55734399	      1.01604653	      0.92527356	      0.50680743	      6.12146397	      5.76941884	    -19.34173717	      8.07536390	      8.07536390	     11.47351831	      7.45036985	     -5.33253673	     42.41938427	    -11.61603765	      4.07784077	     32.99260442	     32.99260442	      7.87293376	    -12.72553103	     12.24608461	    -12.62087174	      6.98380904	      5.66467152	     38.56172241	    -17.05899825	      2.54834934	     76.13104887	     44.72685023	      0.00000000	      0.00000000	    -11.36966157	     -7.06647398	     -3.94648890	     23.71984621	     46.91078793	      0.00000000	      0.00000000
      6.61842857	     -7.21097094	     -6.82807722	      2.73407215	      1.01588129	      0.92437221	      0.50571324	      5.28839806	      6.03193755	    -19.40519786	      7.43564936	      7.43564936	     11.67929193	      7.73459213	     -5.45210209	     41.83864446	    -11.49613393	      3.64014770	     29.84480118	     29.84480118	      7.96339312	    -11.48964195	     12.90684936	    -12.53270090	      7.17074775	      6.11765906	     39.16190814	    -17.57566272	      1.78693670	     80.77970731	     44.63781623	      0.00000000	      0.00000000	    -12.28824543	     -7.20248128	     -3.79597366	     24.17861376	     46.81688001	      0.00000000	      0.00000000
      6.62964286	     -7.20718074	     -6.92658886	      2.87676650	      1.01595056	      0.92347567	      0.50448789	      4.46359007	      6.18623563	    -19.36906472	      6.92831902	      6.92831902	     11.97508820	      7.90028983	     -5.50671475	     41.11931347	    -11.30405947	      3.03663938	     26.96882737	     26.96882737	      7.94390723	    -10.41751657	     13.56437954	    -12.33744029	      7.27192298	      5.82900361	     40.69043821	    -17.12204295	      1.58746479	     82.88912175	     44.58969234	      0.00000000	      0.00000000	    -13.32013843	     -7.23071810	     -3.71431037	     23.88447607	     46.77302411	      0.00000000	      0.00000000
      6.64085714	     -7.19224196	     -7.12855745	      3.05911213	      1.01631103	      0.92243188	      0.50304040	      3.51519415	      6.46799036	    -19.44917459	      6.22032031	      6.22032031	     12.18589523	      8.24636217	     -5.50040102	     40.50599291	    -11.19058104	      2.31613526	     24.70276347	     24.70276347	      8.07717772	     -9.32877551	     14.46166455	    -12.20665348	      7.52340720	      5.98623407	     41.37560783	    -17.28874937	      1.02274233	     87.23502788	     44.50314210	      0.00000000	      0.00000000	    -14.33856351	     -7.32413071	     -3.44229527	     24.62023358	     46.66379884	      0.00000000	      0.00000000
      6.65207143	     -7.19532924	     -7.27930411	      3.18990428	      1.01683813	      0.92127242	      0.50150879	      2.67138578	      6.66006325	    -19.41616374	      5.72354754	      5.72354754	     12.51156664	      8.45581858	     -5.47258090	     39.87106254	    -11.02233833	      1.53366592	     22.84822527	     22.84822527	      7.98469899	     -8.58434672	     15.03470365	    -11.97386348	      7.71014282	      5.81979260	     42.50142720	    -16.89417436	      0.70031280	     90.16603139	     44.44615462	      0.00000000	      0.00000000	    -15.30185015	     -7.36332831	     -3.15582472	     24.73804576	     46.57295854	      0.00000000	      0.00000000
      6.66328571	     -7.20611983	     -7.38434543	      3.28897936	      1.01756016	      0.92004057	      0.49983522	      1.88335249	      6.77297628	    -19.37640424	      5.35739689	      5.35739689	     12.90652386	      8.62503496	     -5.35023913	     39.22823902	    -10.82576441	      0.64125262	     21.44526674	     21.44526674	      7.71864079	     -8.04572849	     15.34505983	    -11.70673460	      7.84359965	      5.84491992	     43.35916385	    -16.76595597	      0.31538988	     93.34955857	     44.38727867	      0.00000000	      0.00000000	    -16.18397253	     -7.42867723	     -2.83984777	     25.17450457	     46.47667679	      0.00000000	      0.00000000
